<svg width="147" height="39" viewBox="0 0 147 39" fill="none" xmlns="http://www.w3.org/2000/svg">
<path d="M30.2499 14.6875C30.2499 19.17 26.9499 22.8687 22.6599 23.515V23.4325C22.2336 18.0975 17.9024 13.7662 12.5261 13.34H12.4849C13.1311 9.05 16.8299 5.75 21.3124 5.75C26.2486 5.75 30.2499 9.75125 30.2499 14.6875Z" fill="#444CE5"/>
<path d="M20.5975 23.5975C20.2537 19.2387 16.7613 15.7463 12.4025 15.4025C12.1688 15.3888 11.9213 15.375 11.6875 15.375C6.75125 15.375 2.75 19.3763 2.75 24.3125C2.75 29.2487 6.75125 33.25 11.6875 33.25C16.6237 33.25 20.625 29.2487 20.625 24.3125C20.625 24.0787 20.6112 23.8312 20.5975 23.5975ZM12.8975 25.5225L11.6875 27.75L10.4775 25.5225L8.25 24.3125L10.4775 23.1025L11.6875 20.875L12.8975 23.1025L15.125 24.3125L12.8975 25.5225Z" fill="#444CE5"/>
<path d="M63.0928 10.852V13.79H55.5268V18.444H61.3248V21.33H55.5268V29H51.8868V10.852H63.0928ZM67.5199 12.88C66.8785 12.88 66.3412 12.6807 65.9079 12.282C65.4919 11.866 65.2839 11.3547 65.2839 10.748C65.2839 10.1413 65.4919 9.63867 65.9079 9.24C66.3412 8.824 66.8785 8.616 67.5199 8.616C68.1612 8.616 68.6899 8.824 69.1059 9.24C69.5392 9.63867 69.7559 10.1413 69.7559 10.748C69.7559 11.3547 69.5392 11.866 69.1059 12.282C68.6899 12.6807 68.1612 12.88 67.5199 12.88ZM69.3139 14.596V29H65.6739V14.596H69.3139ZM80.8922 14.388C82.6082 14.388 83.9949 14.934 85.0522 16.026C86.1095 17.1007 86.6382 18.6087 86.6382 20.55V29H82.9982V21.044C82.9982 19.9 82.7122 19.0247 82.1402 18.418C81.5682 17.794 80.7882 17.482 79.8002 17.482C78.7949 17.482 77.9975 17.794 77.4082 18.418C76.8362 19.0247 76.5502 19.9 76.5502 21.044V29H72.9102V14.596H76.5502V16.39C77.0355 15.766 77.6509 15.2807 78.3962 14.934C79.1589 14.57 79.9909 14.388 80.8922 14.388ZM95.6117 29.234C94.433 29.234 93.3757 29.026 92.4397 28.61C91.5037 28.1767 90.7583 27.596 90.2037 26.868C89.6663 26.14 89.3717 25.334 89.3197 24.45H92.9857C93.055 25.0047 93.3237 25.464 93.7917 25.828C94.277 26.192 94.875 26.374 95.5857 26.374C96.279 26.374 96.8163 26.2353 97.1977 25.958C97.5963 25.6807 97.7957 25.3253 97.7957 24.892C97.7957 24.424 97.553 24.0773 97.0677 23.852C96.5997 23.6093 95.8457 23.3493 94.8057 23.072C93.731 22.812 92.847 22.5433 92.1537 22.266C91.4777 21.9887 90.8883 21.564 90.3857 20.992C89.9003 20.42 89.6577 19.6487 89.6577 18.678C89.6577 17.8807 89.883 17.1527 90.3337 16.494C90.8017 15.8353 91.4603 15.3153 92.3097 14.934C93.1763 14.5527 94.1903 14.362 95.3517 14.362C97.0677 14.362 98.437 14.7953 99.4597 15.662C100.482 16.5113 101.046 17.664 101.15 19.12H97.6657C97.6137 18.548 97.371 18.0973 96.9377 17.768C96.5217 17.4213 95.9583 17.248 95.2477 17.248C94.589 17.248 94.0777 17.3693 93.7137 17.612C93.367 17.8547 93.1937 18.1927 93.1937 18.626C93.1937 19.1113 93.4363 19.484 93.9217 19.744C94.407 19.9867 95.161 20.238 96.1837 20.498C97.2237 20.758 98.0817 21.0267 98.7577 21.304C99.4337 21.5813 100.014 22.0147 100.5 22.604C101.002 23.176 101.262 23.9387 101.28 24.892C101.28 25.724 101.046 26.4693 100.578 27.128C100.127 27.7867 99.4683 28.3067 98.6017 28.688C97.7523 29.052 96.7557 29.234 95.6117 29.234ZM117.866 14.596V29H114.2V27.18C113.732 27.804 113.116 28.298 112.354 28.662C111.608 29.0087 110.794 29.182 109.91 29.182C108.783 29.182 107.786 28.948 106.92 28.48C106.053 27.9947 105.368 27.2927 104.866 26.374C104.38 25.438 104.138 24.3287 104.138 23.046V14.596H107.778V22.526C107.778 23.67 108.064 24.554 108.636 25.178C109.208 25.7847 109.988 26.088 110.976 26.088C111.981 26.088 112.77 25.7847 113.342 25.178C113.914 24.554 114.2 23.67 114.2 22.526V14.596H117.866ZM139.345 14.388C141.113 14.388 142.534 14.934 143.609 16.026C144.701 17.1007 145.247 18.6087 145.247 20.55V29H141.607V21.044C141.607 19.9173 141.321 19.0593 140.749 18.47C140.177 17.8633 139.397 17.56 138.409 17.56C137.421 17.56 136.632 17.8633 136.043 18.47C135.471 19.0593 135.185 19.9173 135.185 21.044V29H131.545V21.044C131.545 19.9173 131.259 19.0593 130.687 18.47C130.115 17.8633 129.335 17.56 128.347 17.56C127.342 17.56 126.544 17.8633 125.955 18.47C125.383 19.0593 125.097 19.9173 125.097 21.044V29H121.457V14.596H125.097V16.338C125.565 15.7313 126.163 15.2547 126.891 14.908C127.636 14.5613 128.451 14.388 129.335 14.388C130.462 14.388 131.467 14.6307 132.351 15.116C133.235 15.584 133.92 16.26 134.405 17.144C134.873 16.312 135.549 15.6447 136.433 15.142C137.334 14.6393 138.305 14.388 139.345 14.388Z" fill="#444CE5"/>
</svg>
