<svg width="29" height="30" viewBox="0 0 29 30" fill="none" xmlns="http://www.w3.org/2000/svg">
<path d="M23.369 18.0087L22.1607 16.0029C21.9069 15.5558 21.6774 14.71 21.6774 14.2146V11.1575C21.6774 8.31792 20.0098 5.865 17.6053 4.71708C16.9769 3.60542 15.8169 2.91667 14.4878 2.91667C13.1707 2.91667 11.9865 3.62958 11.3582 4.75333C9.00193 5.92542 7.37068 8.35417 7.37068 11.1575V14.2146C7.37068 14.71 7.1411 15.5558 6.88735 15.9908L5.66693 18.0087C5.1836 18.8183 5.07485 19.7125 5.37693 20.5342C5.66693 21.3437 6.35568 21.9721 7.24985 22.2742C9.59402 23.0717 12.059 23.4583 14.524 23.4583C16.989 23.4583 19.454 23.0717 21.7982 22.2862C22.644 22.0083 23.2965 21.3679 23.6107 20.5342C23.9249 19.7004 23.8403 18.7821 23.369 18.0087Z" fill="#84828A"/>
<path d="M17.9194 24.6787C17.4119 26.0804 16.0706 27.0833 14.4998 27.0833C13.5452 27.0833 12.6027 26.6967 11.9381 26.0079C11.5515 25.6454 11.2615 25.1621 11.0923 24.6667C11.2494 24.6908 11.4065 24.7029 11.5756 24.7271C11.8535 24.7633 12.1435 24.7996 12.4335 24.8237C13.1223 24.8842 13.8231 24.9204 14.524 24.9204C15.2127 24.9204 15.9015 24.8842 16.5781 24.8237C16.8319 24.7996 17.0856 24.7875 17.3273 24.7512C17.5206 24.7271 17.714 24.7029 17.9194 24.6787Z" fill="#84828A"/>
</svg>
