<svg width="30" height="30" viewBox="0 0 30 30" fill="none" xmlns="http://www.w3.org/2000/svg">
<g clip-path="url(#clip0_97_920)">
<path d="M25.8263 24.2205C13.6823 30 6.14567 25.1645 1.32121 22.2275C1.02267 22.0424 0.515264 22.2708 0.955509 22.7765C2.56278 24.7253 7.83014 29.4226 14.7056 29.4226C21.5857 29.4226 25.6788 25.6684 26.1908 25.0136C26.6994 24.3642 26.3402 24.006 25.8262 24.2205H25.8263ZM29.2369 22.337C28.9108 21.9123 27.2539 21.8332 26.2111 21.9613C25.1668 22.0857 23.5992 22.7239 23.7355 23.1072C23.8054 23.2507 23.9482 23.1863 24.6656 23.1218C25.385 23.0501 27.4003 22.7957 27.8203 23.3447C28.2421 23.8974 27.1775 26.5306 26.983 26.9553C26.7952 27.3799 27.0548 27.4894 27.4077 27.2066C27.7557 26.9239 28.3858 26.1917 28.8086 25.1555C29.2286 24.1137 29.4848 22.6604 29.2369 22.337Z" fill="#FF9900"/>
<path fill-rule="evenodd" clip-rule="evenodd" d="M17.6609 12.4275C17.6609 13.9439 17.6992 15.2086 16.9327 16.5553C16.314 17.6503 15.3341 18.3236 14.2392 18.3236C12.7445 18.3236 11.8741 17.1849 11.8741 15.5042C11.8741 12.1865 14.8467 11.5844 17.6609 11.5844V12.4275ZM21.5861 21.9151C21.3288 22.1449 20.9565 22.1614 20.6664 22.0081C19.3744 20.9351 19.1444 20.4369 18.4327 19.4131C16.2976 21.5921 14.7866 22.2435 12.0165 22.2435C8.74263 22.2435 6.19141 20.2233 6.19141 16.1776C6.19141 13.0188 7.90507 10.8672 10.3411 9.81613C12.4544 8.88533 15.4053 8.72112 17.6609 8.46389V7.96018C17.6609 7.03492 17.7319 5.94002 17.19 5.14077C16.7137 4.42357 15.8049 4.12792 15.0055 4.12792C13.522 4.12792 12.1971 4.88885 11.8741 6.46554C11.8083 6.81601 11.5511 7.16093 11.2007 7.17732L7.42317 6.77227C7.10571 6.70095 6.75536 6.44373 6.84295 5.9564C7.7134 1.3797 11.8466 0 15.5474 0C17.4417 0 19.9162 0.503714 21.4108 1.93812C23.3051 3.70637 23.1244 6.06592 23.1244 8.63353V14.6994C23.1244 16.5225 23.8799 17.3218 24.5916 18.3073C24.8434 18.6576 24.8982 19.0793 24.5806 19.3419C23.7868 20.0043 22.3743 21.2362 21.597 21.926L21.586 21.9151" fill="#2C2C2C"/>
<path d="M25.8263 24.2205C13.6823 30 6.14567 25.1645 1.32121 22.2275C1.02267 22.0424 0.515264 22.2708 0.955509 22.7765C2.56278 24.7253 7.83014 29.4226 14.7056 29.4226C21.5857 29.4226 25.6788 25.6684 26.1908 25.0136C26.6994 24.3642 26.3402 24.006 25.8262 24.2205H25.8263ZM29.2369 22.337C28.9108 21.9123 27.2539 21.8332 26.2111 21.9613C25.1668 22.0857 23.5992 22.7239 23.7355 23.1072C23.8054 23.2507 23.9482 23.1863 24.6656 23.1218C25.385 23.0501 27.4003 22.7957 27.8203 23.3447C28.2421 23.8974 27.1775 26.5306 26.983 26.9553C26.7952 27.3799 27.0548 27.4894 27.4077 27.2066C27.7557 26.9239 28.3858 26.1917 28.8086 25.1555C29.2286 24.1137 29.4848 22.6604 29.2369 22.337Z" fill="#FF9900"/>
<path fill-rule="evenodd" clip-rule="evenodd" d="M17.6609 12.4275C17.6609 13.9439 17.6992 15.2086 16.9327 16.5553C16.314 17.6503 15.3341 18.3236 14.2392 18.3236C12.7445 18.3236 11.8741 17.1849 11.8741 15.5042C11.8741 12.1865 14.8467 11.5844 17.6609 11.5844V12.4275ZM21.5861 21.9151C21.3288 22.1449 20.9565 22.1614 20.6664 22.0081C19.3744 20.9351 19.1444 20.4369 18.4327 19.4131C16.2976 21.5921 14.7866 22.2435 12.0165 22.2435C8.74263 22.2435 6.19141 20.2233 6.19141 16.1776C6.19141 13.0188 7.90507 10.8672 10.3411 9.81613C12.4544 8.88533 15.4053 8.72112 17.6609 8.46389V7.96018C17.6609 7.03492 17.7319 5.94002 17.19 5.14077C16.7137 4.42357 15.8049 4.12792 15.0055 4.12792C13.522 4.12792 12.1971 4.88885 11.8741 6.46554C11.8083 6.81601 11.5511 7.16093 11.2007 7.17732L7.42317 6.77227C7.10571 6.70095 6.75536 6.44373 6.84295 5.9564C7.7134 1.3797 11.8466 0 15.5474 0C17.4417 0 19.9162 0.503714 21.4108 1.93812C23.3051 3.70637 23.1244 6.06592 23.1244 8.63353V14.6994C23.1244 16.5225 23.8799 17.3218 24.5916 18.3073C24.8434 18.6576 24.8982 19.0793 24.5806 19.3419C23.7868 20.0043 22.3743 21.2362 21.597 21.926L21.586 21.9151" fill="#2C2C2C"/>
</g>
<defs>
<clipPath id="clip0_97_920">
<rect width="30" height="30" fill="white"/>
</clipPath>
</defs>
</svg>
