<svg width="265" height="1024" viewBox="0 0 265 1024" fill="none" xmlns="http://www.w3.org/2000/svg">
<rect width="265" height="1029" transform="translate(0 -3)" fill="white"/>
<path d="M37.74 142.096C36.636 142.096 35.768 141.78 35.136 141.148C34.504 140.516 34.188 139.592 34.188 138.376V133.6H35.388V138.328C35.388 139.264 35.592 139.948 36 140.38C36.416 140.812 37 141.028 37.752 141.028C38.512 141.028 39.096 140.812 39.504 140.38C39.92 139.948 40.128 139.264 40.128 138.328V133.6H41.292V138.376C41.292 139.592 40.976 140.516 40.344 141.148C39.72 141.78 38.852 142.096 37.74 142.096ZM45.4082 142.072C44.8802 142.072 44.3762 142 43.8962 141.856C43.4242 141.712 43.0522 141.536 42.7802 141.328L43.2602 140.416C43.5322 140.6 43.8682 140.756 44.2682 140.884C44.6682 141.012 45.0762 141.076 45.4922 141.076C46.0282 141.076 46.4122 141 46.6442 140.848C46.8842 140.696 47.0042 140.484 47.0042 140.212C47.0042 140.012 46.9322 139.856 46.7882 139.744C46.6442 139.632 46.4522 139.548 46.2122 139.492C45.9802 139.436 45.7202 139.388 45.4322 139.348C45.1442 139.3 44.8562 139.244 44.5682 139.18C44.2802 139.108 44.0162 139.012 43.7762 138.892C43.5362 138.764 43.3442 138.592 43.2002 138.376C43.0562 138.152 42.9842 137.856 42.9842 137.488C42.9842 137.104 43.0922 136.768 43.3082 136.48C43.5242 136.192 43.8282 135.972 44.2202 135.82C44.6202 135.66 45.0922 135.58 45.6362 135.58C46.0522 135.58 46.4722 135.632 46.8962 135.736C47.3282 135.832 47.6802 135.972 47.9522 136.156L47.4602 137.068C47.1722 136.876 46.8722 136.744 46.5602 136.672C46.2482 136.6 45.9362 136.564 45.6242 136.564C45.1202 136.564 44.7442 136.648 44.4962 136.816C44.2482 136.976 44.1242 137.184 44.1242 137.44C44.1242 137.656 44.1962 137.824 44.3402 137.944C44.4922 138.056 44.6842 138.144 44.9162 138.208C45.1562 138.272 45.4202 138.328 45.7082 138.376C45.9962 138.416 46.2842 138.472 46.5722 138.544C46.8602 138.608 47.1202 138.7 47.3522 138.82C47.5922 138.94 47.7842 139.108 47.9282 139.324C48.0802 139.54 48.1562 139.828 48.1562 140.188C48.1562 140.572 48.0442 140.904 47.8202 141.184C47.5962 141.464 47.2802 141.684 46.8722 141.844C46.4642 141.996 45.9762 142.072 45.4082 142.072ZM52.4279 142.072C51.7479 142.072 51.1479 141.932 50.6279 141.652C50.1159 141.372 49.7159 140.988 49.4279 140.5C49.1479 140.012 49.0079 139.452 49.0079 138.82C49.0079 138.188 49.1439 137.628 49.4159 137.14C49.6959 136.652 50.0759 136.272 50.5559 136C51.0439 135.72 51.5919 135.58 52.1999 135.58C52.8159 135.58 53.3599 135.716 53.8319 135.988C54.3039 136.26 54.6719 136.644 54.9359 137.14C55.2079 137.628 55.3439 138.2 55.3439 138.856C55.3439 138.904 55.3399 138.96 55.3319 139.024C55.3319 139.088 55.3279 139.148 55.3199 139.204H49.9079V138.376H54.7199L54.2519 138.664C54.2599 138.256 54.1759 137.892 53.9999 137.572C53.8239 137.252 53.5799 137.004 53.2679 136.828C52.9639 136.644 52.6079 136.552 52.1999 136.552C51.7999 136.552 51.4439 136.644 51.1319 136.828C50.8199 137.004 50.5759 137.256 50.3999 137.584C50.2239 137.904 50.1359 138.272 50.1359 138.688V138.88C50.1359 139.304 50.2319 139.684 50.4239 140.02C50.6239 140.348 50.8999 140.604 51.2519 140.788C51.6039 140.972 52.0079 141.064 52.4639 141.064C52.8399 141.064 53.1799 141 53.4839 140.872C53.7959 140.744 54.0679 140.552 54.2999 140.296L54.9359 141.04C54.6479 141.376 54.2879 141.632 53.8559 141.808C53.4319 141.984 52.9559 142.072 52.4279 142.072ZM56.9436 142V135.64H58.0476V137.368L57.9396 136.936C58.1156 136.496 58.4116 136.16 58.8276 135.928C59.2436 135.696 59.7556 135.58 60.3636 135.58V136.696C60.3156 136.688 60.2676 136.684 60.2196 136.684C60.1796 136.684 60.1396 136.684 60.0996 136.684C59.4836 136.684 58.9956 136.868 58.6356 137.236C58.2756 137.604 58.0956 138.136 58.0956 138.832V142H56.9436ZM65.2561 142V133.6H68.5321C69.2681 133.6 69.8961 133.716 70.4161 133.948C70.9361 134.18 71.3361 134.516 71.6161 134.956C71.8961 135.396 72.0361 135.92 72.0361 136.528C72.0361 137.136 71.8961 137.66 71.6161 138.1C71.3361 138.532 70.9361 138.868 70.4161 139.108C69.8961 139.34 69.2681 139.456 68.5321 139.456H65.9161L66.4561 138.892V142H65.2561ZM66.4561 139.012L65.9161 138.412H68.4961C69.2641 138.412 69.8441 138.248 70.2361 137.92C70.6361 137.592 70.8361 137.128 70.8361 136.528C70.8361 135.928 70.6361 135.464 70.2361 135.136C69.8441 134.808 69.2641 134.644 68.4961 134.644H65.9161L66.4561 134.044V139.012ZM77.5205 142V140.656L77.4605 140.404V138.112C77.4605 137.624 77.3165 137.248 77.0285 136.984C76.7485 136.712 76.3245 136.576 75.7565 136.576C75.3805 136.576 75.0125 136.64 74.6525 136.768C74.2925 136.888 73.9885 137.052 73.7405 137.26L73.2605 136.396C73.5885 136.132 73.9805 135.932 74.4365 135.796C74.9005 135.652 75.3845 135.58 75.8885 135.58C76.7605 135.58 77.4325 135.792 77.9045 136.216C78.3765 136.64 78.6125 137.288 78.6125 138.16V142H77.5205ZM75.4325 142.072C74.9605 142.072 74.5445 141.992 74.1845 141.832C73.8325 141.672 73.5605 141.452 73.3685 141.172C73.1765 140.884 73.0805 140.56 73.0805 140.2C73.0805 139.856 73.1605 139.544 73.3205 139.264C73.4885 138.984 73.7565 138.76 74.1245 138.592C74.5005 138.424 75.0045 138.34 75.6365 138.34H77.6525V139.168H75.6845C75.1085 139.168 74.7205 139.264 74.5205 139.456C74.3205 139.648 74.2205 139.88 74.2205 140.152C74.2205 140.464 74.3445 140.716 74.5925 140.908C74.8405 141.092 75.1845 141.184 75.6245 141.184C76.0565 141.184 76.4325 141.088 76.7525 140.896C77.0805 140.704 77.3165 140.424 77.4605 140.056L77.6885 140.848C77.5365 141.224 77.2685 141.524 76.8845 141.748C76.5005 141.964 76.0165 142.072 75.4325 142.072ZM84.1403 135.58C84.6603 135.58 85.1163 135.68 85.5083 135.88C85.9083 136.08 86.2203 136.384 86.4443 136.792C86.6683 137.2 86.7803 137.716 86.7803 138.34V142H85.6283V138.472C85.6283 137.856 85.4763 137.392 85.1723 137.08C84.8763 136.768 84.4563 136.612 83.9123 136.612C83.5043 136.612 83.1483 136.692 82.8443 136.852C82.5403 137.012 82.3043 137.248 82.1363 137.56C81.9763 137.872 81.8963 138.26 81.8963 138.724V142H80.7443V135.64H81.8483V137.356L81.6683 136.9C81.8763 136.484 82.1963 136.16 82.6283 135.928C83.0603 135.696 83.5643 135.58 84.1403 135.58ZM91.7443 142.072C91.0643 142.072 90.4643 141.932 89.9443 141.652C89.4323 141.372 89.0323 140.988 88.7443 140.5C88.4643 140.012 88.3243 139.452 88.3243 138.82C88.3243 138.188 88.4603 137.628 88.7323 137.14C89.0123 136.652 89.3923 136.272 89.8723 136C90.3603 135.72 90.9083 135.58 91.5163 135.58C92.1323 135.58 92.6763 135.716 93.1483 135.988C93.6203 136.26 93.9883 136.644 94.2523 137.14C94.5243 137.628 94.6603 138.2 94.6603 138.856C94.6603 138.904 94.6563 138.96 94.6483 139.024C94.6483 139.088 94.6443 139.148 94.6363 139.204H89.2243V138.376H94.0363L93.5683 138.664C93.5763 138.256 93.4923 137.892 93.3163 137.572C93.1403 137.252 92.8963 137.004 92.5843 136.828C92.2803 136.644 91.9243 136.552 91.5163 136.552C91.1163 136.552 90.7603 136.644 90.4483 136.828C90.1363 137.004 89.8923 137.256 89.7163 137.584C89.5403 137.904 89.4523 138.272 89.4523 138.688V138.88C89.4523 139.304 89.5483 139.684 89.7403 140.02C89.9403 140.348 90.2163 140.604 90.5683 140.788C90.9203 140.972 91.3243 141.064 91.7803 141.064C92.1563 141.064 92.4963 141 92.8003 140.872C93.1123 140.744 93.3843 140.552 93.6163 140.296L94.2523 141.04C93.9643 141.376 93.6043 141.632 93.1723 141.808C92.7483 141.984 92.2723 142.072 91.7443 142.072ZM96.26 142V133.096H97.412V142H96.26Z" fill="#90A4AE"/>
<path d="M51.1404 186.62C50.2604 186.88 49.2204 187 48.0004 187H42.0004C40.7804 187 39.7404 186.88 38.8604 186.62C39.0804 184.02 41.7504 181.97 45.0004 181.97C48.2504 181.97 50.9204 184.02 51.1404 186.62Z" stroke="#292D32" stroke-width="1.5" stroke-linecap="round" stroke-linejoin="round"/>
<path d="M48 167H42C37 167 35 169 35 174V180C35 183.78 36.14 185.85 38.86 186.62C39.08 184.02 41.75 181.97 45 181.97C48.25 181.97 50.92 184.02 51.14 186.62C53.86 185.85 55 183.78 55 180V174C55 169 53 167 48 167ZM45 179.17C43.02 179.17 41.42 177.56 41.42 175.58C41.42 173.6 43.02 172 45 172C46.98 172 48.58 173.6 48.58 175.58C48.58 177.56 46.98 179.17 45 179.17Z" stroke="#292D32" stroke-width="1.5" stroke-linecap="round" stroke-linejoin="round"/>
<path d="M48.5799 175.58C48.5799 177.56 46.9799 179.17 44.9999 179.17C43.0199 179.17 41.4199 177.56 41.4199 175.58C41.4199 173.6 43.0199 172 44.9999 172C46.9799 172 48.5799 173.6 48.5799 175.58Z" stroke="#292D32" stroke-width="1.5" stroke-linecap="round" stroke-linejoin="round"/>
<path d="M82.976 175.192C82.976 175.757 82.8427 176.291 82.576 176.792C82.3093 177.293 81.8827 177.704 81.296 178.024C80.7093 178.333 79.9573 178.488 79.04 178.488H77.024V183H75.2V171.88H79.04C79.8933 171.88 80.6133 172.029 81.2 172.328C81.7973 172.616 82.24 173.011 82.528 173.512C82.8267 174.013 82.976 174.573 82.976 175.192ZM79.04 177C79.7333 177 80.2507 176.845 80.592 176.536C80.9333 176.216 81.104 175.768 81.104 175.192C81.104 173.976 80.416 173.368 79.04 173.368H77.024V177H79.04ZM92.7956 178.376C92.7956 178.707 92.7743 179.005 92.7316 179.272H85.9956C86.049 179.976 86.3103 180.541 86.7796 180.968C87.249 181.395 87.825 181.608 88.5076 181.608C89.489 181.608 90.1823 181.197 90.5876 180.376H92.5556C92.289 181.187 91.8036 181.853 91.0996 182.376C90.4063 182.888 89.5423 183.144 88.5076 183.144C87.665 183.144 86.9076 182.957 86.2356 182.584C85.5743 182.2 85.0516 181.667 84.6676 180.984C84.2943 180.291 84.1076 179.491 84.1076 178.584C84.1076 177.677 84.289 176.883 84.6516 176.2C85.025 175.507 85.5423 174.973 86.2036 174.6C86.8756 174.227 87.6436 174.04 88.5076 174.04C89.3396 174.04 90.081 174.221 90.7316 174.584C91.3823 174.947 91.889 175.459 92.2516 176.12C92.6143 176.771 92.7956 177.523 92.7956 178.376ZM90.8916 177.8C90.881 177.128 90.641 176.589 90.1716 176.184C89.7023 175.779 89.121 175.576 88.4276 175.576C87.7983 175.576 87.2596 175.779 86.8116 176.184C86.3636 176.579 86.097 177.117 86.0116 177.8H90.8916ZM96.4146 175.464C96.6813 175.016 97.0333 174.669 97.4706 174.424C97.9186 174.168 98.4466 174.04 99.0546 174.04V175.928H98.5906C97.876 175.928 97.332 176.109 96.9586 176.472C96.596 176.835 96.4146 177.464 96.4146 178.36V183H94.5906V174.184H96.4146V175.464ZM103.931 183.144C103.238 183.144 102.614 183.021 102.059 182.776C101.515 182.52 101.083 182.179 100.763 181.752C100.443 181.315 100.273 180.829 100.251 180.296H102.139C102.171 180.669 102.347 180.984 102.667 181.24C102.998 181.485 103.409 181.608 103.899 181.608C104.411 181.608 104.806 181.512 105.083 181.32C105.371 181.117 105.515 180.861 105.515 180.552C105.515 180.221 105.355 179.976 105.035 179.816C104.726 179.656 104.23 179.48 103.547 179.288C102.886 179.107 102.347 178.931 101.931 178.76C101.515 178.589 101.153 178.328 100.843 177.976C100.545 177.624 100.395 177.16 100.395 176.584C100.395 176.115 100.534 175.688 100.811 175.304C101.089 174.909 101.483 174.6 101.995 174.376C102.518 174.152 103.115 174.04 103.787 174.04C104.79 174.04 105.595 174.296 106.203 174.808C106.822 175.309 107.153 175.997 107.195 176.872H105.371C105.339 176.477 105.179 176.163 104.891 175.928C104.603 175.693 104.214 175.576 103.723 175.576C103.243 175.576 102.875 175.667 102.619 175.848C102.363 176.029 102.235 176.269 102.235 176.568C102.235 176.803 102.321 177 102.491 177.16C102.662 177.32 102.87 177.448 103.115 177.544C103.361 177.629 103.723 177.741 104.203 177.88C104.843 178.051 105.366 178.227 105.771 178.408C106.187 178.579 106.545 178.835 106.843 179.176C107.142 179.517 107.297 179.971 107.307 180.536C107.307 181.037 107.169 181.485 106.891 181.88C106.614 182.275 106.219 182.584 105.707 182.808C105.206 183.032 104.614 183.144 103.931 183.144ZM113.102 183.144C112.27 183.144 111.518 182.957 110.846 182.584C110.174 182.2 109.646 181.667 109.262 180.984C108.878 180.291 108.686 179.491 108.686 178.584C108.686 177.688 108.883 176.893 109.278 176.2C109.673 175.507 110.211 174.973 110.894 174.6C111.577 174.227 112.339 174.04 113.182 174.04C114.025 174.04 114.787 174.227 115.47 174.6C116.153 174.973 116.691 175.507 117.086 176.2C117.481 176.893 117.678 177.688 117.678 178.584C117.678 179.48 117.475 180.275 117.07 180.968C116.665 181.661 116.11 182.2 115.406 182.584C114.713 182.957 113.945 183.144 113.102 183.144ZM113.102 181.56C113.571 181.56 114.009 181.448 114.414 181.224C114.83 181 115.166 180.664 115.422 180.216C115.678 179.768 115.806 179.224 115.806 178.584C115.806 177.944 115.683 177.405 115.438 176.968C115.193 176.52 114.867 176.184 114.462 175.96C114.057 175.736 113.619 175.624 113.15 175.624C112.681 175.624 112.243 175.736 111.838 175.96C111.443 176.184 111.129 176.52 110.894 176.968C110.659 177.405 110.542 177.944 110.542 178.584C110.542 179.533 110.782 180.269 111.262 180.792C111.753 181.304 112.366 181.56 113.102 181.56ZM123.929 174.04C124.623 174.04 125.241 174.184 125.785 174.472C126.34 174.76 126.772 175.187 127.081 175.752C127.391 176.317 127.545 177 127.545 177.8V183H125.737V178.072C125.737 177.283 125.54 176.68 125.145 176.264C124.751 175.837 124.212 175.624 123.529 175.624C122.847 175.624 122.303 175.837 121.897 176.264C121.503 176.68 121.305 177.283 121.305 178.072V183H119.481V174.184H121.305V175.192C121.604 174.829 121.983 174.547 122.441 174.344C122.911 174.141 123.407 174.04 123.929 174.04ZM129.264 178.552C129.264 177.667 129.445 176.883 129.808 176.2C130.181 175.517 130.683 174.989 131.312 174.616C131.952 174.232 132.656 174.04 133.424 174.04C134.117 174.04 134.72 174.179 135.232 174.456C135.755 174.723 136.171 175.059 136.48 175.464V174.184H138.32V183H136.48V181.688C136.171 182.104 135.749 182.451 135.216 182.728C134.683 183.005 134.075 183.144 133.392 183.144C132.635 183.144 131.941 182.952 131.312 182.568C130.683 182.173 130.181 181.629 129.808 180.936C129.445 180.232 129.264 179.437 129.264 178.552ZM136.48 178.584C136.48 177.976 136.352 177.448 136.096 177C135.851 176.552 135.525 176.211 135.12 175.976C134.715 175.741 134.277 175.624 133.808 175.624C133.339 175.624 132.901 175.741 132.496 175.976C132.091 176.2 131.76 176.536 131.504 176.984C131.259 177.421 131.136 177.944 131.136 178.552C131.136 179.16 131.259 179.693 131.504 180.152C131.76 180.611 132.091 180.963 132.496 181.208C132.912 181.443 133.349 181.56 133.808 181.56C134.277 181.56 134.715 181.443 135.12 181.208C135.525 180.973 135.851 180.632 136.096 180.184C136.352 179.725 136.48 179.192 136.48 178.584Z" fill="#808080"/>
<path d="M46 254V248H54V254H46ZM36 258V248H44V258H36ZM46 266V256H54V266H46ZM36 266V260H44V266H36Z" fill="#808080"/>
<path d="M78.832 251.88C80.016 251.88 81.0507 252.109 81.936 252.568C82.832 253.016 83.52 253.667 84 254.52C84.4907 255.363 84.736 256.349 84.736 257.48C84.736 258.611 84.4907 259.592 84 260.424C83.52 261.256 82.832 261.896 81.936 262.344C81.0507 262.781 80.016 263 78.832 263H75.2V251.88H78.832ZM78.832 261.512C80.1333 261.512 81.1307 261.16 81.824 260.456C82.5173 259.752 82.864 258.76 82.864 257.48C82.864 256.189 82.5173 255.181 81.824 254.456C81.1307 253.731 80.1333 253.368 78.832 253.368H77.024V261.512H78.832ZM85.9358 258.552C85.9358 257.667 86.1171 256.883 86.4798 256.2C86.8531 255.517 87.3544 254.989 87.9838 254.616C88.6238 254.232 89.3278 254.04 90.0958 254.04C90.7891 254.04 91.3918 254.179 91.9038 254.456C92.4264 254.723 92.8424 255.059 93.1518 255.464V254.184H94.9918V263H93.1518V261.688C92.8424 262.104 92.4211 262.451 91.8878 262.728C91.3544 263.005 90.7464 263.144 90.0638 263.144C89.3064 263.144 88.6131 262.952 87.9838 262.568C87.3544 262.173 86.8531 261.629 86.4798 260.936C86.1171 260.232 85.9358 259.437 85.9358 258.552ZM93.1518 258.584C93.1518 257.976 93.0238 257.448 92.7678 257C92.5224 256.552 92.1971 256.211 91.7918 255.976C91.3864 255.741 90.9491 255.624 90.4798 255.624C90.0104 255.624 89.5731 255.741 89.1678 255.976C88.7624 256.2 88.4318 256.536 88.1758 256.984C87.9304 257.421 87.8078 257.944 87.8078 258.552C87.8078 259.16 87.9304 259.693 88.1758 260.152C88.4318 260.611 88.7624 260.963 89.1678 261.208C89.5838 261.443 90.0211 261.56 90.4798 261.56C90.9491 261.56 91.3864 261.443 91.7918 261.208C92.1971 260.973 92.5224 260.632 92.7678 260.184C93.0238 259.725 93.1518 259.192 93.1518 258.584ZM100.588 263.144C99.8942 263.144 99.2702 263.021 98.7155 262.776C98.1715 262.52 97.7395 262.179 97.4195 261.752C97.0995 261.315 96.9288 260.829 96.9075 260.296H98.7955C98.8275 260.669 99.0035 260.984 99.3235 261.24C99.6542 261.485 100.065 261.608 100.556 261.608C101.068 261.608 101.462 261.512 101.74 261.32C102.028 261.117 102.172 260.861 102.172 260.552C102.172 260.221 102.012 259.976 101.692 259.816C101.382 259.656 100.886 259.48 100.204 259.288C99.5422 259.107 99.0035 258.931 98.5875 258.76C98.1715 258.589 97.8088 258.328 97.4995 257.976C97.2008 257.624 97.0515 257.16 97.0515 256.584C97.0515 256.115 97.1902 255.688 97.4675 255.304C97.7448 254.909 98.1395 254.6 98.6515 254.376C99.1742 254.152 99.7715 254.04 100.444 254.04C101.446 254.04 102.252 254.296 102.86 254.808C103.478 255.309 103.809 255.997 103.852 256.872H102.028C101.996 256.477 101.836 256.163 101.548 255.928C101.26 255.693 100.87 255.576 100.38 255.576C99.8995 255.576 99.5315 255.667 99.2755 255.848C99.0195 256.029 98.8915 256.269 98.8915 256.568C98.8915 256.803 98.9768 257 99.1475 257.16C99.3182 257.32 99.5262 257.448 99.7715 257.544C100.017 257.629 100.38 257.741 100.86 257.88C101.5 258.051 102.022 258.227 102.428 258.408C102.844 258.579 103.201 258.835 103.5 259.176C103.798 259.517 103.953 259.971 103.964 260.536C103.964 261.037 103.825 261.485 103.548 261.88C103.27 262.275 102.876 262.584 102.364 262.808C101.862 263.032 101.27 263.144 100.588 263.144ZM110.494 254.04C111.166 254.04 111.764 254.184 112.286 254.472C112.82 254.76 113.236 255.187 113.534 255.752C113.844 256.317 113.998 257 113.998 257.8V263H112.19V258.072C112.19 257.283 111.993 256.68 111.598 256.264C111.204 255.837 110.665 255.624 109.982 255.624C109.3 255.624 108.756 255.837 108.35 256.264C107.956 256.68 107.758 257.283 107.758 258.072V263H105.934V251.16H107.758V255.208C108.068 254.835 108.457 254.547 108.926 254.344C109.406 254.141 109.929 254.04 110.494 254.04ZM118.149 255.496C118.458 255.069 118.88 254.723 119.413 254.456C119.957 254.179 120.56 254.04 121.221 254.04C122 254.04 122.704 254.227 123.333 254.6C123.962 254.973 124.458 255.507 124.821 256.2C125.184 256.883 125.365 257.667 125.365 258.552C125.365 259.437 125.184 260.232 124.821 260.936C124.458 261.629 123.957 262.173 123.317 262.568C122.688 262.952 121.989 263.144 121.221 263.144C120.538 263.144 119.93 263.011 119.397 262.744C118.874 262.477 118.458 262.136 118.149 261.72V263H116.325V251.16H118.149V255.496ZM123.509 258.552C123.509 257.944 123.381 257.421 123.125 256.984C122.88 256.536 122.549 256.2 122.133 255.976C121.728 255.741 121.29 255.624 120.821 255.624C120.362 255.624 119.925 255.741 119.509 255.976C119.104 256.211 118.773 256.552 118.517 257C118.272 257.448 118.149 257.976 118.149 258.584C118.149 259.192 118.272 259.725 118.517 260.184C118.773 260.632 119.104 260.973 119.509 261.208C119.925 261.443 120.362 261.56 120.821 261.56C121.29 261.56 121.728 261.443 122.133 261.208C122.549 260.963 122.88 260.611 123.125 260.152C123.381 259.693 123.509 259.16 123.509 258.552ZM130.993 263.144C130.161 263.144 129.409 262.957 128.737 262.584C128.065 262.2 127.537 261.667 127.153 260.984C126.769 260.291 126.577 259.491 126.577 258.584C126.577 257.688 126.774 256.893 127.169 256.2C127.563 255.507 128.102 254.973 128.785 254.6C129.467 254.227 130.23 254.04 131.073 254.04C131.915 254.04 132.678 254.227 133.361 254.6C134.043 254.973 134.582 255.507 134.977 256.2C135.371 256.893 135.569 257.688 135.569 258.584C135.569 259.48 135.366 260.275 134.961 260.968C134.555 261.661 134.001 262.2 133.297 262.584C132.603 262.957 131.835 263.144 130.993 263.144ZM130.993 261.56C131.462 261.56 131.899 261.448 132.305 261.224C132.721 261 133.057 260.664 133.313 260.216C133.569 259.768 133.697 259.224 133.697 258.584C133.697 257.944 133.574 257.405 133.329 256.968C133.083 256.52 132.758 256.184 132.353 255.96C131.947 255.736 131.51 255.624 131.041 255.624C130.571 255.624 130.134 255.736 129.729 255.96C129.334 256.184 129.019 256.52 128.785 256.968C128.55 257.405 128.433 257.944 128.433 258.584C128.433 259.533 128.673 260.269 129.153 260.792C129.643 261.304 130.257 261.56 130.993 261.56ZM136.764 258.552C136.764 257.667 136.945 256.883 137.308 256.2C137.681 255.517 138.183 254.989 138.812 254.616C139.452 254.232 140.156 254.04 140.924 254.04C141.617 254.04 142.22 254.179 142.732 254.456C143.255 254.723 143.671 255.059 143.98 255.464V254.184H145.82V263H143.98V261.688C143.671 262.104 143.249 262.451 142.716 262.728C142.183 263.005 141.575 263.144 140.892 263.144C140.135 263.144 139.441 262.952 138.812 262.568C138.183 262.173 137.681 261.629 137.308 260.936C136.945 260.232 136.764 259.437 136.764 258.552ZM143.98 258.584C143.98 257.976 143.852 257.448 143.596 257C143.351 256.552 143.025 256.211 142.62 255.976C142.215 255.741 141.777 255.624 141.308 255.624C140.839 255.624 140.401 255.741 139.996 255.976C139.591 256.2 139.26 256.536 139.004 256.984C138.759 257.421 138.636 257.944 138.636 258.552C138.636 259.16 138.759 259.693 139.004 260.152C139.26 260.611 139.591 260.963 139.996 261.208C140.412 261.443 140.849 261.56 141.308 261.56C141.777 261.56 142.215 261.443 142.62 261.208C143.025 260.973 143.351 260.632 143.596 260.184C143.852 259.725 143.98 259.192 143.98 258.584ZM150.04 255.464C150.306 255.016 150.658 254.669 151.096 254.424C151.544 254.168 152.072 254.04 152.68 254.04V255.928H152.216C151.501 255.928 150.957 256.109 150.584 256.472C150.221 256.835 150.04 257.464 150.04 258.36V263H148.216V254.184H150.04V255.464ZM153.748 258.552C153.748 257.667 153.93 256.883 154.292 256.2C154.666 255.517 155.167 254.989 155.796 254.616C156.436 254.232 157.146 254.04 157.924 254.04C158.5 254.04 159.066 254.168 159.62 254.424C160.186 254.669 160.634 255 160.964 255.416V251.16H162.804V263H160.964V261.672C160.666 262.099 160.25 262.451 159.716 262.728C159.194 263.005 158.591 263.144 157.908 263.144C157.14 263.144 156.436 262.952 155.796 262.568C155.167 262.173 154.666 261.629 154.292 260.936C153.93 260.232 153.748 259.437 153.748 258.552ZM160.964 258.584C160.964 257.976 160.836 257.448 160.58 257C160.335 256.552 160.01 256.211 159.604 255.976C159.199 255.741 158.762 255.624 158.292 255.624C157.823 255.624 157.386 255.741 156.98 255.976C156.575 256.2 156.244 256.536 155.988 256.984C155.743 257.421 155.62 257.944 155.62 258.552C155.62 259.16 155.743 259.693 155.988 260.152C156.244 260.611 156.575 260.963 156.98 261.208C157.396 261.443 157.834 261.56 158.292 261.56C158.762 261.56 159.199 261.443 159.604 261.208C160.01 260.973 160.335 260.632 160.58 260.184C160.836 259.725 160.964 259.192 160.964 258.584Z" fill="#808080"/>
<path d="M42.1504 584.35C41.7404 584.35 41.4004 584.01 41.4004 583.6V581.5C41.4004 581.09 41.7404 580.75 42.1504 580.75C42.5604 580.75 42.9004 581.09 42.9004 581.5V583.6C42.9004 584.01 42.5604 584.35 42.1504 584.35Z" fill="#808080"/>
<path d="M47.9004 587.75H36.4004V586C36.4004 584.48 37.6304 583.25 39.1504 583.25H45.1504C46.6704 583.25 47.9004 584.48 47.9004 586V587.75ZM37.9004 586.25H46.4004V586C46.4004 585.31 45.8404 584.75 45.1504 584.75H39.1504C38.4604 584.75 37.9004 585.31 37.9004 586V586.25Z" fill="#808080"/>
<path d="M48.1504 587.75H36.1504C35.7404 587.75 35.4004 587.41 35.4004 587C35.4004 586.59 35.7404 586.25 36.1504 586.25H48.1504C48.5604 586.25 48.9004 586.59 48.9004 587C48.9004 587.41 48.5604 587.75 48.1504 587.75Z" fill="#808080"/>
<path d="M48.4297 577.44C48.2197 577.44 48.0097 577.35 47.8597 577.18C47.6697 576.96 47.6197 576.65 47.7397 576.39C48.0797 575.61 48.2497 574.78 48.2497 573.91V570.91C48.2497 570.56 48.1897 570.22 48.0697 569.86C48.0597 569.83 48.0497 569.79 48.0397 569.75C48.0097 569.6 47.9997 569.45 47.9997 569.31C47.9997 568.9 48.3397 568.56 48.7497 568.56H49.3497C51.1397 568.56 52.5997 570.06 52.5997 571.91C52.5997 573.44 51.9697 574.95 50.8797 576.04C50.8597 576.06 50.7997 576.11 50.7897 576.12C50.1997 576.61 49.5297 577.16 48.6297 577.41C48.5597 577.43 48.4997 577.44 48.4297 577.44ZM49.6797 570.09C49.7297 570.36 49.7497 570.64 49.7497 570.91V573.91C49.7497 574.32 49.7197 574.71 49.6597 575.11C49.7197 575.06 49.7697 575.02 49.8297 574.97C50.6297 574.17 51.0997 573.05 51.0997 571.91C51.0997 571.01 50.4897 570.25 49.6797 570.09Z" fill="#808080"/>
<path d="M35.5804 577.4C35.5004 577.4 35.4304 577.39 35.3504 577.36C34.5304 577.1 33.7604 576.62 33.1204 575.98C31.9704 574.71 31.4004 573.32 31.4004 571.85C31.4004 570.03 32.8304 568.6 34.6504 568.6H35.3004C35.5504 568.6 35.7904 568.73 35.9304 568.94C36.0704 569.15 36.0904 569.42 35.9904 569.65C35.8304 570.01 35.7504 570.42 35.7504 570.85V573.85C35.7504 574.71 35.9204 575.55 36.2704 576.35C36.3904 576.62 36.3304 576.93 36.1404 577.15C35.9904 577.31 35.7904 577.4 35.5804 577.4ZM34.3004 570.13C33.4904 570.29 32.9004 570.99 32.9004 571.85C32.9004 572.94 33.3404 573.99 34.2104 574.95C34.2504 575 34.3004 575.04 34.3504 575.08C34.2804 574.67 34.2504 574.26 34.2504 573.85V570.85C34.2504 570.61 34.2704 570.37 34.3004 570.13Z" fill="#808080"/>
<path d="M42 581.75C37.73 581.75 34.25 578.27 34.25 574V571C34.25 568.38 36.38 566.25 39 566.25H45C47.62 566.25 49.75 568.38 49.75 571V574C49.75 578.27 46.27 581.75 42 581.75ZM39 567.75C37.21 567.75 35.75 569.21 35.75 571V574C35.75 577.45 38.55 580.25 42 580.25C45.45 580.25 48.25 577.45 48.25 574V571C48.25 569.21 46.79 567.75 45 567.75H39Z" fill="#808080"/>
<path d="M74.024 581.528H77.784V583H72.2V571.88H74.024V581.528ZM87.3894 578.376C87.3894 578.707 87.368 579.005 87.3254 579.272H80.5894C80.6427 579.976 80.904 580.541 81.3734 580.968C81.8427 581.395 82.4187 581.608 83.1014 581.608C84.0827 581.608 84.776 581.197 85.1814 580.376H87.1494C86.8827 581.187 86.3974 581.853 85.6934 582.376C85 582.888 84.136 583.144 83.1014 583.144C82.2587 583.144 81.5014 582.957 80.8294 582.584C80.168 582.2 79.6454 581.667 79.2614 580.984C78.888 580.291 78.7014 579.491 78.7014 578.584C78.7014 577.677 78.8827 576.883 79.2454 576.2C79.6187 575.507 80.136 574.973 80.7974 574.6C81.4694 574.227 82.2374 574.04 83.1014 574.04C83.9334 574.04 84.6747 574.221 85.3254 574.584C85.976 574.947 86.4827 575.459 86.8454 576.12C87.208 576.771 87.3894 577.523 87.3894 578.376ZM85.4854 577.8C85.4747 577.128 85.2347 576.589 84.7654 576.184C84.296 575.779 83.7147 575.576 83.0214 575.576C82.392 575.576 81.8534 575.779 81.4054 576.184C80.9574 576.579 80.6907 577.117 80.6054 577.8H85.4854ZM88.5764 578.552C88.5764 577.667 88.7577 576.883 89.1204 576.2C89.4937 575.517 89.995 574.989 90.6244 574.616C91.2644 574.232 91.9684 574.04 92.7364 574.04C93.4297 574.04 94.0324 574.179 94.5444 574.456C95.067 574.723 95.483 575.059 95.7924 575.464V574.184H97.6324V583H95.7924V581.688C95.483 582.104 95.0617 582.451 94.5284 582.728C93.995 583.005 93.387 583.144 92.7044 583.144C91.947 583.144 91.2537 582.952 90.6244 582.568C89.995 582.173 89.4937 581.629 89.1204 580.936C88.7577 580.232 88.5764 579.437 88.5764 578.552ZM95.7924 578.584C95.7924 577.976 95.6644 577.448 95.4084 577C95.163 576.552 94.8377 576.211 94.4324 575.976C94.027 575.741 93.5897 575.624 93.1204 575.624C92.651 575.624 92.2137 575.741 91.8084 575.976C91.403 576.2 91.0724 576.536 90.8164 576.984C90.571 577.421 90.4484 577.944 90.4484 578.552C90.4484 579.16 90.571 579.693 90.8164 580.152C91.0724 580.611 91.403 580.963 91.8084 581.208C92.2244 581.443 92.6617 581.56 93.1204 581.56C93.5897 581.56 94.027 581.443 94.4324 581.208C94.8377 580.973 95.163 580.632 95.4084 580.184C95.6644 579.725 95.7924 579.192 95.7924 578.584ZM99.4201 578.552C99.4201 577.667 99.6015 576.883 99.9641 576.2C100.337 575.517 100.839 574.989 101.468 574.616C102.108 574.232 102.817 574.04 103.596 574.04C104.172 574.04 104.737 574.168 105.292 574.424C105.857 574.669 106.305 575 106.636 575.416V571.16H108.476V583H106.636V581.672C106.337 582.099 105.921 582.451 105.388 582.728C104.865 583.005 104.263 583.144 103.58 583.144C102.812 583.144 102.108 582.952 101.468 582.568C100.839 582.173 100.337 581.629 99.9641 580.936C99.6015 580.232 99.4201 579.437 99.4201 578.552ZM106.636 578.584C106.636 577.976 106.508 577.448 106.252 577C106.007 576.552 105.681 576.211 105.276 575.976C104.871 575.741 104.433 575.624 103.964 575.624C103.495 575.624 103.057 575.741 102.652 575.976C102.247 576.2 101.916 576.536 101.66 576.984C101.415 577.421 101.292 577.944 101.292 578.552C101.292 579.16 101.415 579.693 101.66 580.152C101.916 580.611 102.247 580.963 102.652 581.208C103.068 581.443 103.505 581.56 103.964 581.56C104.433 581.56 104.871 581.443 105.276 581.208C105.681 580.973 106.007 580.632 106.252 580.184C106.508 579.725 106.636 579.192 106.636 578.584ZM118.952 578.376C118.952 578.707 118.931 579.005 118.888 579.272H112.152C112.205 579.976 112.467 580.541 112.936 580.968C113.405 581.395 113.981 581.608 114.664 581.608C115.645 581.608 116.339 581.197 116.744 580.376H118.712C118.445 581.187 117.96 581.853 117.256 582.376C116.563 582.888 115.699 583.144 114.664 583.144C113.821 583.144 113.064 582.957 112.392 582.584C111.731 582.2 111.208 581.667 110.824 580.984C110.451 580.291 110.264 579.491 110.264 578.584C110.264 577.677 110.445 576.883 110.808 576.2C111.181 575.507 111.699 574.973 112.36 574.6C113.032 574.227 113.8 574.04 114.664 574.04C115.496 574.04 116.237 574.221 116.888 574.584C117.539 574.947 118.045 575.459 118.408 576.12C118.771 576.771 118.952 577.523 118.952 578.376ZM117.048 577.8C117.037 577.128 116.797 576.589 116.328 576.184C115.859 575.779 115.277 575.576 114.584 575.576C113.955 575.576 113.416 575.779 112.968 576.184C112.52 576.579 112.253 577.117 112.168 577.8H117.048ZM122.571 575.464C122.838 575.016 123.19 574.669 123.627 574.424C124.075 574.168 124.603 574.04 125.211 574.04V575.928H124.747C124.032 575.928 123.488 576.109 123.115 576.472C122.752 576.835 122.571 577.464 122.571 578.36V583H120.747V574.184H122.571V575.464ZM128.712 575.496C129.021 575.069 129.442 574.723 129.976 574.456C130.52 574.179 131.122 574.04 131.784 574.04C132.562 574.04 133.266 574.227 133.896 574.6C134.525 574.973 135.021 575.507 135.384 576.2C135.746 576.883 135.928 577.667 135.928 578.552C135.928 579.437 135.746 580.232 135.384 580.936C135.021 581.629 134.52 582.173 133.88 582.568C133.25 582.952 132.552 583.144 131.784 583.144C131.101 583.144 130.493 583.011 129.96 582.744C129.437 582.477 129.021 582.136 128.712 581.72V583H126.888V571.16H128.712V575.496ZM134.072 578.552C134.072 577.944 133.944 577.421 133.688 576.984C133.442 576.536 133.112 576.2 132.696 575.976C132.29 575.741 131.853 575.624 131.384 575.624C130.925 575.624 130.488 575.741 130.072 575.976C129.666 576.211 129.336 576.552 129.08 577C128.834 577.448 128.712 577.976 128.712 578.584C128.712 579.192 128.834 579.725 129.08 580.184C129.336 580.632 129.666 580.973 130.072 581.208C130.488 581.443 130.925 581.56 131.384 581.56C131.853 581.56 132.29 581.443 132.696 581.208C133.112 580.963 133.442 580.611 133.688 580.152C133.944 579.693 134.072 579.16 134.072 578.552ZM141.555 583.144C140.723 583.144 139.971 582.957 139.299 582.584C138.627 582.2 138.099 581.667 137.715 580.984C137.331 580.291 137.139 579.491 137.139 578.584C137.139 577.688 137.337 576.893 137.731 576.2C138.126 575.507 138.665 574.973 139.347 574.6C140.03 574.227 140.793 574.04 141.635 574.04C142.478 574.04 143.241 574.227 143.923 574.6C144.606 574.973 145.145 575.507 145.539 576.2C145.934 576.893 146.131 577.688 146.131 578.584C146.131 579.48 145.929 580.275 145.523 580.968C145.118 581.661 144.563 582.2 143.859 582.584C143.166 582.957 142.398 583.144 141.555 583.144ZM141.555 581.56C142.025 581.56 142.462 581.448 142.867 581.224C143.283 581 143.619 580.664 143.875 580.216C144.131 579.768 144.259 579.224 144.259 578.584C144.259 577.944 144.137 577.405 143.891 576.968C143.646 576.52 143.321 576.184 142.915 575.96C142.51 575.736 142.073 575.624 141.603 575.624C141.134 575.624 140.697 575.736 140.291 575.96C139.897 576.184 139.582 576.52 139.347 576.968C139.113 577.405 138.995 577.944 138.995 578.584C138.995 579.533 139.235 580.269 139.715 580.792C140.206 581.304 140.819 581.56 141.555 581.56ZM147.326 578.552C147.326 577.667 147.508 576.883 147.87 576.2C148.244 575.517 148.745 574.989 149.374 574.616C150.014 574.232 150.718 574.04 151.486 574.04C152.18 574.04 152.782 574.179 153.294 574.456C153.817 574.723 154.233 575.059 154.542 575.464V574.184H156.382V583H154.542V581.688C154.233 582.104 153.812 582.451 153.278 582.728C152.745 583.005 152.137 583.144 151.454 583.144C150.697 583.144 150.004 582.952 149.374 582.568C148.745 582.173 148.244 581.629 147.87 580.936C147.508 580.232 147.326 579.437 147.326 578.552ZM154.542 578.584C154.542 577.976 154.414 577.448 154.158 577C153.913 576.552 153.588 576.211 153.182 575.976C152.777 575.741 152.34 575.624 151.87 575.624C151.401 575.624 150.964 575.741 150.558 575.976C150.153 576.2 149.822 576.536 149.566 576.984C149.321 577.421 149.198 577.944 149.198 578.552C149.198 579.16 149.321 579.693 149.566 580.152C149.822 580.611 150.153 580.963 150.558 581.208C150.974 581.443 151.412 581.56 151.87 581.56C152.34 581.56 152.777 581.443 153.182 581.208C153.588 580.973 153.913 580.632 154.158 580.184C154.414 579.725 154.542 579.192 154.542 578.584ZM160.602 575.464C160.869 575.016 161.221 574.669 161.658 574.424C162.106 574.168 162.634 574.04 163.242 574.04V575.928H162.778C162.063 575.928 161.519 576.109 161.146 576.472C160.783 576.835 160.602 577.464 160.602 578.36V583H158.778V574.184H160.602V575.464ZM164.311 578.552C164.311 577.667 164.492 576.883 164.855 576.2C165.228 575.517 165.729 574.989 166.359 574.616C166.999 574.232 167.708 574.04 168.487 574.04C169.063 574.04 169.628 574.168 170.183 574.424C170.748 574.669 171.196 575 171.527 575.416V571.16H173.367V583H171.527V581.672C171.228 582.099 170.812 582.451 170.279 582.728C169.756 583.005 169.153 583.144 168.471 583.144C167.703 583.144 166.999 582.952 166.359 582.568C165.729 582.173 165.228 581.629 164.855 580.936C164.492 580.232 164.311 579.437 164.311 578.552ZM171.527 578.584C171.527 577.976 171.399 577.448 171.143 577C170.897 576.552 170.572 576.211 170.167 575.976C169.761 575.741 169.324 575.624 168.855 575.624C168.385 575.624 167.948 575.741 167.543 575.976C167.137 576.2 166.807 576.536 166.551 576.984C166.305 577.421 166.183 577.944 166.183 578.552C166.183 579.16 166.305 579.693 166.551 580.152C166.807 580.611 167.137 580.963 167.543 581.208C167.959 581.443 168.396 581.56 168.855 581.56C169.324 581.56 169.761 581.443 170.167 581.208C170.572 580.973 170.897 580.632 171.143 580.184C171.399 579.725 171.527 579.192 171.527 578.584Z" fill="#808080"/>
<path d="M54.75 337.75V346H35.25V337.75M34.5 331H55.5V337C55.5 337 51 340 45 340C39 340 34.5 337 34.5 337V331ZM45 341.5V338.5V341.5ZM48 331C48 331 48 328 45 328C42 328 42 331 42 331" fill="#808080"/>
<path d="M54.75 337.75V346H35.25V337.75M45 341.5V338.5M48 331C48 331 48 328 45 328C42 328 42 331 42 331M34.5 331H55.5V337C55.5 337 51 340 45 340C39 340 34.5 337 34.5 337V331Z" stroke="white" stroke-width="1.5" stroke-linecap="round" stroke-linejoin="round"/>
<path d="M82.976 335.192C82.976 335.757 82.8427 336.291 82.576 336.792C82.3093 337.293 81.8827 337.704 81.296 338.024C80.7093 338.333 79.9573 338.488 79.04 338.488H77.024V343H75.2V331.88H79.04C79.8933 331.88 80.6133 332.029 81.2 332.328C81.7973 332.616 82.24 333.011 82.528 333.512C82.8267 334.013 82.976 334.573 82.976 335.192ZM79.04 337C79.7333 337 80.2507 336.845 80.592 336.536C80.9333 336.216 81.104 335.768 81.104 335.192C81.104 333.976 80.416 333.368 79.04 333.368H77.024V337H79.04ZM88.5396 343.144C87.7076 343.144 86.9556 342.957 86.2836 342.584C85.6116 342.2 85.0836 341.667 84.6996 340.984C84.3156 340.291 84.1236 339.491 84.1236 338.584C84.1236 337.688 84.321 336.893 84.7156 336.2C85.1103 335.507 85.649 334.973 86.3316 334.6C87.0143 334.227 87.777 334.04 88.6196 334.04C89.4623 334.04 90.225 334.227 90.9076 334.6C91.5903 334.973 92.129 335.507 92.5236 336.2C92.9183 336.893 93.1156 337.688 93.1156 338.584C93.1156 339.48 92.913 340.275 92.5076 340.968C92.1023 341.661 91.5476 342.2 90.8436 342.584C90.1503 342.957 89.3823 343.144 88.5396 343.144ZM88.5396 341.56C89.009 341.56 89.4463 341.448 89.8516 341.224C90.2676 341 90.6036 340.664 90.8596 340.216C91.1156 339.768 91.2436 339.224 91.2436 338.584C91.2436 337.944 91.121 337.405 90.8756 336.968C90.6303 336.52 90.305 336.184 89.8996 335.96C89.4943 335.736 89.057 335.624 88.5876 335.624C88.1183 335.624 87.681 335.736 87.2756 335.96C86.881 336.184 86.5663 336.52 86.3316 336.968C86.097 337.405 85.9796 337.944 85.9796 338.584C85.9796 339.533 86.2196 340.269 86.6996 340.792C87.1903 341.304 87.8036 341.56 88.5396 341.56ZM96.7428 335.464C97.0094 335.016 97.3614 334.669 97.7988 334.424C98.2468 334.168 98.7748 334.04 99.3828 334.04V335.928H98.9188C98.2041 335.928 97.6601 336.109 97.2868 336.472C96.9241 336.835 96.7428 337.464 96.7428 338.36V343H94.9188V334.184H96.7428V335.464ZM103.187 335.672V340.552C103.187 340.883 103.262 341.123 103.411 341.272C103.571 341.411 103.838 341.48 104.211 341.48H105.331V343H103.891C103.07 343 102.441 342.808 102.003 342.424C101.566 342.04 101.347 341.416 101.347 340.552V335.672H100.307V334.184H101.347V331.992H103.187V334.184H105.331V335.672H103.187ZM110.709 335.672H109.077V343H107.237V335.672H106.197V334.184H107.237V333.56C107.237 332.547 107.503 331.811 108.037 331.352C108.581 330.883 109.429 330.648 110.581 330.648V332.168C110.026 332.168 109.637 332.275 109.413 332.488C109.189 332.691 109.077 333.048 109.077 333.56V334.184H110.709V335.672ZM116.149 343.144C115.317 343.144 114.565 342.957 113.893 342.584C113.221 342.2 112.693 341.667 112.309 340.984C111.925 340.291 111.733 339.491 111.733 338.584C111.733 337.688 111.93 336.893 112.325 336.2C112.72 335.507 113.258 334.973 113.941 334.6C114.624 334.227 115.386 334.04 116.229 334.04C117.072 334.04 117.834 334.227 118.517 334.6C119.2 334.973 119.738 335.507 120.133 336.2C120.528 336.893 120.725 337.688 120.725 338.584C120.725 339.48 120.522 340.275 120.117 340.968C119.712 341.661 119.157 342.2 118.453 342.584C117.76 342.957 116.992 343.144 116.149 343.144ZM116.149 341.56C116.618 341.56 117.056 341.448 117.461 341.224C117.877 341 118.213 340.664 118.469 340.216C118.725 339.768 118.853 339.224 118.853 338.584C118.853 337.944 118.73 337.405 118.485 336.968C118.24 336.52 117.914 336.184 117.509 335.96C117.104 335.736 116.666 335.624 116.197 335.624C115.728 335.624 115.29 335.736 114.885 335.96C114.49 336.184 114.176 336.52 113.941 336.968C113.706 337.405 113.589 337.944 113.589 338.584C113.589 339.533 113.829 340.269 114.309 340.792C114.8 341.304 115.413 341.56 116.149 341.56ZM124.352 331.16V343H122.528V331.16H124.352ZM127.675 333.016C127.344 333.016 127.067 332.904 126.843 332.68C126.619 332.456 126.507 332.179 126.507 331.848C126.507 331.517 126.619 331.24 126.843 331.016C127.067 330.792 127.344 330.68 127.675 330.68C127.995 330.68 128.267 330.792 128.491 331.016C128.715 331.24 128.827 331.517 128.827 331.848C128.827 332.179 128.715 332.456 128.491 332.68C128.267 332.904 127.995 333.016 127.675 333.016ZM128.571 334.184V343H126.747V334.184H128.571ZM134.79 343.144C133.958 343.144 133.206 342.957 132.534 342.584C131.862 342.2 131.334 341.667 130.95 340.984C130.566 340.291 130.374 339.491 130.374 338.584C130.374 337.688 130.571 336.893 130.966 336.2C131.36 335.507 131.899 334.973 132.582 334.6C133.264 334.227 134.027 334.04 134.87 334.04C135.712 334.04 136.475 334.227 137.158 334.6C137.84 334.973 138.379 335.507 138.774 336.2C139.168 336.893 139.366 337.688 139.366 338.584C139.366 339.48 139.163 340.275 138.758 340.968C138.352 341.661 137.798 342.2 137.094 342.584C136.4 342.957 135.632 343.144 134.79 343.144ZM134.79 341.56C135.259 341.56 135.696 341.448 136.102 341.224C136.518 341 136.854 340.664 137.11 340.216C137.366 339.768 137.494 339.224 137.494 338.584C137.494 337.944 137.371 337.405 137.126 336.968C136.88 336.52 136.555 336.184 136.15 335.96C135.744 335.736 135.307 335.624 134.838 335.624C134.368 335.624 133.931 335.736 133.526 335.96C133.131 336.184 132.816 336.52 132.582 336.968C132.347 337.405 132.23 337.944 132.23 338.584C132.23 339.533 132.47 340.269 132.95 340.792C133.44 341.304 134.054 341.56 134.79 341.56Z" fill="#808080"/>
<path d="M45 425L45 408.712" stroke="#444CE5" stroke-width="2" stroke-linecap="round" stroke-linejoin="round"/>
<path d="M38 425V410M52 422V415.5M52 411V407" stroke="#444CE5" stroke-width="2" stroke-linecap="round" stroke-linejoin="round"/>
<path d="M35 415H41V422H35V415ZM42 411H48V418H42V411Z" fill="#444CE5"/>
<path d="M49 410H55V416.5H49V410Z" fill="#444CE5"/>
<path d="M86.912 411.88V423H85.088V415.384L81.696 423H80.432L77.024 415.384V423H75.2V411.88H77.168L81.072 420.6L84.96 411.88H86.912ZM88.7014 418.552C88.7014 417.667 88.8827 416.883 89.2454 416.2C89.6187 415.517 90.12 414.989 90.7494 414.616C91.3894 414.232 92.0934 414.04 92.8614 414.04C93.5547 414.04 94.1574 414.179 94.6694 414.456C95.192 414.723 95.608 415.059 95.9174 415.464V414.184H97.7574V423H95.9174V421.688C95.608 422.104 95.1867 422.451 94.6534 422.728C94.12 423.005 93.512 423.144 92.8294 423.144C92.072 423.144 91.3787 422.952 90.7494 422.568C90.12 422.173 89.6187 421.629 89.2454 420.936C88.8827 420.232 88.7014 419.437 88.7014 418.552ZM95.9174 418.584C95.9174 417.976 95.7894 417.448 95.5334 417C95.288 416.552 94.9627 416.211 94.5574 415.976C94.152 415.741 93.7147 415.624 93.2454 415.624C92.776 415.624 92.3387 415.741 91.9334 415.976C91.528 416.2 91.1974 416.536 90.9414 416.984C90.696 417.421 90.5734 417.944 90.5734 418.552C90.5734 419.16 90.696 419.693 90.9414 420.152C91.1974 420.611 91.528 420.963 91.9334 421.208C92.3494 421.443 92.7867 421.56 93.2454 421.56C93.7147 421.56 94.152 421.443 94.5574 421.208C94.9627 420.973 95.288 420.632 95.5334 420.184C95.7894 419.725 95.9174 419.192 95.9174 418.584ZM101.977 415.464C102.244 415.016 102.596 414.669 103.033 414.424C103.481 414.168 104.009 414.04 104.617 414.04V415.928H104.153C103.438 415.928 102.894 416.109 102.521 416.472C102.158 416.835 101.977 417.464 101.977 418.36V423H100.153V414.184H101.977V415.464ZM109.782 418.6L113.846 423H111.382L108.118 419.208V423H106.294V411.16H108.118V418.04L111.318 414.184H113.846L109.782 418.6ZM123.233 418.376C123.233 418.707 123.212 419.005 123.169 419.272H116.433C116.486 419.976 116.748 420.541 117.217 420.968C117.686 421.395 118.262 421.608 118.945 421.608C119.926 421.608 120.62 421.197 121.025 420.376H122.993C122.726 421.187 122.241 421.853 121.537 422.376C120.844 422.888 119.98 423.144 118.945 423.144C118.102 423.144 117.345 422.957 116.673 422.584C116.012 422.2 115.489 421.667 115.105 420.984C114.732 420.291 114.545 419.491 114.545 418.584C114.545 417.677 114.726 416.883 115.089 416.2C115.462 415.507 115.98 414.973 116.641 414.6C117.313 414.227 118.081 414.04 118.945 414.04C119.777 414.04 120.518 414.221 121.169 414.584C121.82 414.947 122.326 415.459 122.689 416.12C123.052 416.771 123.233 417.523 123.233 418.376ZM121.329 417.8C121.318 417.128 121.078 416.589 120.609 416.184C120.14 415.779 119.558 415.576 118.865 415.576C118.236 415.576 117.697 415.779 117.249 416.184C116.801 416.579 116.534 417.117 116.449 417.8H121.329ZM127.156 415.672V420.552C127.156 420.883 127.231 421.123 127.38 421.272C127.54 421.411 127.807 421.48 128.18 421.48H129.3V423H127.86C127.039 423 126.409 422.808 125.972 422.424C125.535 422.04 125.316 421.416 125.316 420.552V415.672H124.276V414.184H125.316V411.992H127.156V414.184H129.3V415.672H127.156Z" fill="#444CE5"/>
<path d="M52.42 496.75H49C48.59 496.75 48.25 496.41 48.25 496V489.01C48.25 488.27 48.54 487.58 49.06 487.06C49.58 486.54 50.27 486.25 51.01 486.25H51.02C52.27 486.26 53.45 486.75 54.35 487.64C55.25 488.55 55.74 489.75 55.74 491V493.42C55.75 495.41 54.41 496.75 52.42 496.75ZM49.75 495.25H52.42C53.58 495.25 54.25 494.58 54.25 493.42V491C54.25 490.14 53.91 489.32 53.3 488.7C52.69 488.1 51.88 487.76 51.02 487.75C51.02 487.75 51.02 487.75 51.01 487.75C50.68 487.75 50.36 487.88 50.12 488.12C49.88 488.36 49.75 488.67 49.75 489.01V495.25Z" fill="#808080"/>
<path d="M41.9998 508.33C41.5298 508.33 41.0898 508.15 40.7598 507.81L39.0997 506.14C39.0097 506.05 38.8698 506.04 38.7698 506.12L37.0598 507.4C36.5298 507.8 35.8297 507.87 35.2297 507.57C34.6297 507.27 34.2598 506.67 34.2598 506V491C34.2598 487.98 35.9898 486.25 39.0098 486.25H51.0098C51.4198 486.25 51.7598 486.59 51.7598 487C51.7598 487.41 51.4198 487.75 51.0098 487.75C50.3198 487.75 49.7598 488.31 49.7598 489V506C49.7598 506.67 49.3897 507.27 48.7897 507.57C48.1997 507.87 47.4898 507.8 46.9598 507.4L45.2498 506.12C45.1498 506.04 45.0097 506.06 44.9297 506.14L43.2498 507.82C42.9098 508.15 42.4698 508.33 41.9998 508.33ZM38.9097 504.57C39.3697 504.57 39.8197 504.74 40.1597 505.09L41.8198 506.76C41.8798 506.82 41.9598 506.83 41.9998 506.83C42.0398 506.83 42.1197 506.82 42.1797 506.76L43.8597 505.08C44.4797 504.46 45.4598 504.4 46.1498 504.93L47.8497 506.2C47.9597 506.28 48.0597 506.25 48.1097 506.22C48.1597 506.19 48.2498 506.13 48.2498 506V489C48.2498 488.55 48.3597 488.12 48.5497 487.75H38.9998C36.7798 487.75 35.7498 488.78 35.7498 491V506C35.7498 506.14 35.8398 506.2 35.8898 506.23C35.9498 506.26 36.0498 506.28 36.1498 506.2L37.8597 504.92C38.1697 504.69 38.5397 504.57 38.9097 504.57Z" fill="#808080"/>
<path d="M77.024 501.528H80.784V503H75.2V491.88H77.024V501.528ZM83.2374 493.016C82.9067 493.016 82.6294 492.904 82.4054 492.68C82.1814 492.456 82.0694 492.179 82.0694 491.848C82.0694 491.517 82.1814 491.24 82.4054 491.016C82.6294 490.792 82.9067 490.68 83.2374 490.68C83.5574 490.68 83.8294 490.792 84.0534 491.016C84.2774 491.24 84.3894 491.517 84.3894 491.848C84.3894 492.179 84.2774 492.456 84.0534 492.68C83.8294 492.904 83.5574 493.016 83.2374 493.016ZM84.1334 494.184V503H82.3094V494.184H84.1334ZM90.2241 495.672H88.5921V503H86.7521V495.672H85.7121V494.184H86.7521V493.56C86.7521 492.547 87.0188 491.811 87.5521 491.352C88.0961 490.883 88.9441 490.648 90.0961 490.648V492.168C89.5415 492.168 89.1521 492.275 88.9281 492.488C88.7041 492.691 88.5921 493.048 88.5921 493.56V494.184H90.2241V495.672ZM99.9206 498.376C99.9206 498.707 99.8993 499.005 99.8566 499.272H93.1206C93.174 499.976 93.4353 500.541 93.9046 500.968C94.374 501.395 94.95 501.608 95.6326 501.608C96.614 501.608 97.3073 501.197 97.7126 500.376H99.6806C99.414 501.187 98.9286 501.853 98.2246 502.376C97.5313 502.888 96.6673 503.144 95.6326 503.144C94.79 503.144 94.0326 502.957 93.3606 502.584C92.6993 502.2 92.1766 501.667 91.7926 500.984C91.4193 500.291 91.2326 499.491 91.2326 498.584C91.2326 497.677 91.414 496.883 91.7766 496.2C92.15 495.507 92.6673 494.973 93.3286 494.6C94.0006 494.227 94.7686 494.04 95.6326 494.04C96.4646 494.04 97.206 494.221 97.8566 494.584C98.5073 494.947 99.014 495.459 99.3766 496.12C99.7393 496.771 99.9206 497.523 99.9206 498.376ZM98.0166 497.8C98.006 497.128 97.766 496.589 97.2966 496.184C96.8273 495.779 96.246 495.576 95.5526 495.576C94.9233 495.576 94.3846 495.779 93.9366 496.184C93.4886 496.579 93.222 497.117 93.1366 497.8H98.0166ZM107.696 493.352V496.616H111.536V498.104H107.696V501.512H112.016V503H105.872V491.864H112.016V493.352H107.696ZM117.671 501.368L120.167 494.184H122.102L118.743 503H116.567L113.223 494.184H115.174L117.671 501.368ZM131.561 498.376C131.561 498.707 131.54 499.005 131.497 499.272H124.761C124.815 499.976 125.076 500.541 125.545 500.968C126.015 501.395 126.591 501.608 127.273 501.608C128.255 501.608 128.948 501.197 129.353 500.376H131.321C131.055 501.187 130.569 501.853 129.865 502.376C129.172 502.888 128.308 503.144 127.273 503.144C126.431 503.144 125.673 502.957 125.001 502.584C124.34 502.2 123.817 501.667 123.433 500.984C123.06 500.291 122.873 499.491 122.873 498.584C122.873 497.677 123.055 496.883 123.417 496.2C123.791 495.507 124.308 494.973 124.969 494.6C125.641 494.227 126.409 494.04 127.273 494.04C128.105 494.04 128.847 494.221 129.497 494.584C130.148 494.947 130.655 495.459 131.017 496.12C131.38 496.771 131.561 497.523 131.561 498.376ZM129.657 497.8C129.647 497.128 129.407 496.589 128.937 496.184C128.468 495.779 127.887 495.576 127.193 495.576C126.564 495.576 126.025 495.779 125.577 496.184C125.129 496.579 124.863 497.117 124.777 497.8H129.657ZM137.804 494.04C138.498 494.04 139.116 494.184 139.66 494.472C140.215 494.76 140.647 495.187 140.956 495.752C141.266 496.317 141.42 497 141.42 497.8V503H139.612V498.072C139.612 497.283 139.415 496.68 139.02 496.264C138.626 495.837 138.087 495.624 137.404 495.624C136.722 495.624 136.178 495.837 135.772 496.264C135.378 496.68 135.18 497.283 135.18 498.072V503H133.356V494.184H135.18V495.192C135.479 494.829 135.858 494.547 136.316 494.344C136.786 494.141 137.282 494.04 137.804 494.04ZM145.875 495.672V500.552C145.875 500.883 145.95 501.123 146.099 501.272C146.259 501.411 146.526 501.48 146.899 501.48H148.019V503H146.579C145.758 503 145.128 502.808 144.691 502.424C144.254 502.04 144.035 501.416 144.035 500.552V495.672H142.995V494.184H144.035V491.992H145.875V494.184H148.019V495.672H145.875ZM152.9 503.144C152.207 503.144 151.583 503.021 151.028 502.776C150.484 502.52 150.052 502.179 149.732 501.752C149.412 501.315 149.241 500.829 149.22 500.296H151.108C151.14 500.669 151.316 500.984 151.636 501.24C151.967 501.485 152.377 501.608 152.868 501.608C153.38 501.608 153.775 501.512 154.052 501.32C154.34 501.117 154.484 500.861 154.484 500.552C154.484 500.221 154.324 499.976 154.004 499.816C153.695 499.656 153.199 499.48 152.516 499.288C151.855 499.107 151.316 498.931 150.9 498.76C150.484 498.589 150.121 498.328 149.812 497.976C149.513 497.624 149.364 497.16 149.364 496.584C149.364 496.115 149.503 495.688 149.78 495.304C150.057 494.909 150.452 494.6 150.964 494.376C151.487 494.152 152.084 494.04 152.756 494.04C153.759 494.04 154.564 494.296 155.172 494.808C155.791 495.309 156.121 495.997 156.164 496.872H154.34C154.308 496.477 154.148 496.163 153.86 495.928C153.572 495.693 153.183 495.576 152.692 495.576C152.212 495.576 151.844 495.667 151.588 495.848C151.332 496.029 151.204 496.269 151.204 496.568C151.204 496.803 151.289 497 151.46 497.16C151.631 497.32 151.839 497.448 152.084 497.544C152.329 497.629 152.692 497.741 153.172 497.88C153.812 498.051 154.335 498.227 154.74 498.408C155.156 498.579 155.513 498.835 155.812 499.176C156.111 499.517 156.265 499.971 156.276 500.536C156.276 501.037 156.137 501.485 155.86 501.88C155.583 502.275 155.188 502.584 154.676 502.808C154.175 503.032 153.583 503.144 152.9 503.144Z" fill="#808080"/>
<path d="M51.0996 942.56C50.7896 938.96 48.9396 937.49 44.8896 937.49H44.7596C40.2896 937.49 38.4996 939.28 38.4996 943.75V950.27C38.4996 954.74 40.2896 956.53 44.7596 956.53H44.8896C48.9096 956.53 50.7596 955.08 51.0896 951.54" stroke="#292D32" stroke-width="1.5" stroke-linecap="round" stroke-linejoin="round"/>
<path d="M44.9999 947H56.3799" stroke="#292D32" stroke-width="1.5" stroke-linecap="round" stroke-linejoin="round"/>
<path d="M54.15 943.65L57.5 947L54.15 950.35" stroke="#292D32" stroke-width="1.5" stroke-linecap="round" stroke-linejoin="round"/>
<path d="M77.024 950.528H80.784V952H75.2V940.88H77.024V950.528ZM86.1334 952.144C85.3014 952.144 84.5494 951.957 83.8774 951.584C83.2054 951.2 82.6774 950.667 82.2934 949.984C81.9094 949.291 81.7174 948.491 81.7174 947.584C81.7174 946.688 81.9147 945.893 82.3094 945.2C82.704 944.507 83.2427 943.973 83.9254 943.6C84.608 943.227 85.3707 943.04 86.2134 943.04C87.056 943.04 87.8187 943.227 88.5014 943.6C89.184 943.973 89.7227 944.507 90.1174 945.2C90.512 945.893 90.7094 946.688 90.7094 947.584C90.7094 948.48 90.5067 949.275 90.1014 949.968C89.696 950.661 89.1414 951.2 88.4374 951.584C87.744 951.957 86.976 952.144 86.1334 952.144ZM86.1334 950.56C86.6027 950.56 87.04 950.448 87.4454 950.224C87.8614 950 88.1974 949.664 88.4534 949.216C88.7094 948.768 88.8374 948.224 88.8374 947.584C88.8374 946.944 88.7147 946.405 88.4694 945.968C88.224 945.52 87.8987 945.184 87.4934 944.96C87.088 944.736 86.6507 944.624 86.1814 944.624C85.712 944.624 85.2747 944.736 84.8694 944.96C84.4747 945.184 84.16 945.52 83.9254 945.968C83.6907 946.405 83.5734 946.944 83.5734 947.584C83.5734 948.533 83.8134 949.269 84.2934 949.792C84.784 950.304 85.3974 950.56 86.1334 950.56ZM96.0645 943.04C96.7472 943.04 97.3498 943.179 97.8725 943.456C98.4058 943.723 98.8218 944.059 99.1205 944.464V943.184H100.961V952.144C100.961 952.955 100.79 953.675 100.449 954.304C100.107 954.944 99.6112 955.445 98.9605 955.808C98.3205 956.171 97.5525 956.352 96.6565 956.352C95.4618 956.352 94.4698 956.069 93.6805 955.504C92.8912 954.949 92.4432 954.192 92.3365 953.232H94.1445C94.2832 953.691 94.5765 954.059 95.0245 954.336C95.4832 954.624 96.0272 954.768 96.6565 954.768C97.3925 954.768 97.9845 954.544 98.4325 954.096C98.8912 953.648 99.1205 952.997 99.1205 952.144V950.672C98.8112 951.088 98.3898 951.44 97.8565 951.728C97.3338 952.005 96.7365 952.144 96.0645 952.144C95.2965 952.144 94.5925 951.952 93.9525 951.568C93.3232 951.173 92.8218 950.629 92.4485 949.936C92.0858 949.232 91.9045 948.437 91.9045 947.552C91.9045 946.667 92.0858 945.883 92.4485 945.2C92.8218 944.517 93.3232 943.989 93.9525 943.616C94.5925 943.232 95.2965 943.04 96.0645 943.04ZM99.1205 947.584C99.1205 946.976 98.9925 946.448 98.7365 946C98.4912 945.552 98.1658 945.211 97.7605 944.976C97.3552 944.741 96.9178 944.624 96.4485 944.624C95.9792 944.624 95.5418 944.741 95.1365 944.976C94.7312 945.2 94.4005 945.536 94.1445 945.984C93.8992 946.421 93.7765 946.944 93.7765 947.552C93.7765 948.16 93.8992 948.693 94.1445 949.152C94.4005 949.611 94.7312 949.963 95.1365 950.208C95.5525 950.443 95.9898 950.56 96.4485 950.56C96.9178 950.56 97.3552 950.443 97.7605 950.208C98.1658 949.973 98.4912 949.632 98.7365 949.184C98.9925 948.725 99.1205 948.192 99.1205 947.584ZM107.18 952.144C106.348 952.144 105.596 951.957 104.924 951.584C104.252 951.2 103.724 950.667 103.34 949.984C102.956 949.291 102.764 948.491 102.764 947.584C102.764 946.688 102.962 945.893 103.356 945.2C103.751 944.507 104.29 943.973 104.972 943.6C105.655 943.227 106.418 943.04 107.26 943.04C108.103 943.04 108.866 943.227 109.548 943.6C110.231 943.973 110.77 944.507 111.164 945.2C111.559 945.893 111.756 946.688 111.756 947.584C111.756 948.48 111.554 949.275 111.148 949.968C110.743 950.661 110.188 951.2 109.484 951.584C108.791 951.957 108.023 952.144 107.18 952.144ZM107.18 950.56C107.65 950.56 108.087 950.448 108.492 950.224C108.908 950 109.244 949.664 109.5 949.216C109.756 948.768 109.884 948.224 109.884 947.584C109.884 946.944 109.762 946.405 109.516 945.968C109.271 945.52 108.946 945.184 108.54 944.96C108.135 944.736 107.698 944.624 107.228 944.624C106.759 944.624 106.322 944.736 105.916 944.96C105.522 945.184 105.207 945.52 104.972 945.968C104.738 946.405 104.62 946.944 104.62 947.584C104.62 948.533 104.86 949.269 105.34 949.792C105.831 950.304 106.444 950.56 107.18 950.56ZM121.543 943.184V952H119.719V950.96C119.431 951.323 119.053 951.611 118.583 951.824C118.125 952.027 117.634 952.128 117.111 952.128C116.418 952.128 115.794 951.984 115.239 951.696C114.695 951.408 114.263 950.981 113.943 950.416C113.634 949.851 113.479 949.168 113.479 948.368V943.184H115.287V948.096C115.287 948.885 115.485 949.493 115.879 949.92C116.274 950.336 116.813 950.544 117.495 950.544C118.178 950.544 118.717 950.336 119.111 949.92C119.517 949.493 119.719 948.885 119.719 948.096V943.184H121.543ZM126.078 944.672V949.552C126.078 949.883 126.153 950.123 126.302 950.272C126.462 950.411 126.729 950.48 127.102 950.48H128.222V952H126.782C125.961 952 125.331 951.808 124.894 951.424C124.457 951.04 124.238 950.416 124.238 949.552V944.672H123.198V943.184H124.238V940.992H126.078V943.184H128.222V944.672H126.078Z" fill="#808080"/>
</svg>
