<svg width="21" height="14" viewBox="0 0 21 14" fill="none" xmlns="http://www.w3.org/2000/svg">
<path d="M2.68551 8.86308C2.68551 9.63571 2.85503 10.2288 3.07675 10.5877C3.36737 11.0577 3.80082 11.2573 4.24273 11.2573C4.81263 11.2573 5.33405 11.1158 6.33883 9.72606C7.14401 8.6122 8.09234 7.04871 8.73055 6.06851L9.81136 4.40789C10.5621 3.25461 11.4311 1.9726 12.4275 1.1036C13.2412 0.394274 14.1184 0.000244141 15.0015 0.000244141C16.4841 0.000244141 17.8963 0.859414 18.9771 2.47079C20.16 4.23549 20.7341 6.45838 20.7341 8.75222C20.7341 10.1159 20.4653 11.1179 20.0079 11.9095C19.5661 12.6751 18.7048 13.44 17.256 13.44V11.2569C18.4965 11.2569 18.8061 10.117 18.8061 8.81239C18.8061 6.95336 18.3726 4.89032 17.4178 3.41616C16.7402 2.37053 15.8621 1.73164 14.8959 1.73164C13.851 1.73164 13.0101 2.51987 12.0651 3.92486C11.5627 4.67148 11.0469 5.58125 10.4678 6.60789L9.83026 7.73727C8.54977 10.0083 8.22532 10.5253 7.58499 11.3786C6.46274 12.873 5.50432 13.4396 4.24273 13.4396C2.74603 13.4396 1.79965 12.7915 1.21347 11.8149C0.735028 11.0191 0.5 9.97482 0.5 8.78502L2.68551 8.86308Z" fill="white"/>
<path d="M2.22314 2.62463C3.22513 1.08013 4.67115 0 6.32965 0C7.2901 0 8.24513 0.284271 9.24203 1.09844C10.3327 1.98837 11.4951 3.45465 12.9453 5.87019L13.4653 6.73682C14.7206 8.82808 15.4348 9.90397 15.8528 10.4113C16.3903 11.0628 16.7668 11.2571 17.2559 11.2571C18.4964 11.2571 18.806 10.1171 18.806 8.81257L20.734 8.75206C20.734 10.1158 20.4652 11.1178 20.0078 11.9094C19.566 12.6749 18.7047 13.4398 17.2559 13.4398C16.3552 13.4398 15.5573 13.2442 14.6749 12.4117C13.9968 11.7728 13.2035 10.6379 12.5934 9.61758L10.7787 6.58629C9.86829 5.06501 9.03277 3.93072 8.54966 3.41702C8.0296 2.86458 7.36113 2.19755 6.29439 2.19755C5.43107 2.19755 4.69785 2.80338 4.0843 3.7301L2.22314 2.62463Z" fill="white"/>
<path d="M6.2945 2.19755C5.43118 2.19755 4.69796 2.80338 4.08441 3.7301C3.21676 5.03958 2.68594 6.99007 2.68594 8.86317C2.68594 9.63581 2.85545 10.2289 3.07717 10.5878L1.21347 11.815C0.735028 11.0192 0.5 9.97491 0.5 8.78511C0.5 6.62138 1.09388 4.3662 2.22326 2.62463C3.22524 1.08013 4.67126 0 6.32976 0L6.2945 2.19755Z" fill="white"/>
</svg>
