<svg width="32" height="32" viewBox="0 0 32 32" fill="none" xmlns="http://www.w3.org/2000/svg">
<path d="M26.6667 9.38669V22.6134C26.6667 24.64 26.48 26.08 26 27.1067C26 27.12 25.9866 27.1467 25.9733 27.16C25.68 27.5334 25.2933 27.72 24.84 27.72C24.1333 27.72 23.28 27.2534 22.36 26.2667C21.2667 25.0934 19.5866 25.1867 18.6266 26.4667L17.28 28.2534C16.7467 28.9734 16.04 29.3334 15.3333 29.3334C14.6267 29.3334 13.92 28.9734 13.3866 28.2534L12.0267 26.4534C11.08 25.1867 9.41332 25.0934 8.31999 26.2534L8.30664 26.2667C6.79997 27.88 5.46669 28.12 4.69336 27.16C4.68003 27.1467 4.66667 27.12 4.66667 27.1067C4.18667 26.08 4 24.64 4 22.6134V9.38669C4 7.36002 4.18667 5.92002 4.66667 4.89335C4.66667 4.88002 4.66669 4.86669 4.69336 4.85335C5.45336 3.88002 6.79997 4.12002 8.30664 5.73335L8.31999 5.74669C9.41332 6.90669 11.08 6.81335 12.0267 5.54669L13.3866 3.74669C13.92 3.02669 14.6267 2.66669 15.3333 2.66669C16.04 2.66669 16.7467 3.02669 17.28 3.74669L18.6266 5.53336C19.5866 6.81336 21.2667 6.90669 22.36 5.73335C23.28 4.74669 24.1333 4.28002 24.84 4.28002C25.2933 4.28002 25.68 4.48002 25.9733 4.85335C26 4.86669 26 4.88002 26 4.89335C26.48 5.92002 26.6667 7.36002 26.6667 9.38669Z" stroke="#2C2C2C" stroke-width="1.5" stroke-linecap="round" stroke-linejoin="round"/>
<path d="M10.6665 13.6667H21.3332" stroke="#2C2C2C" stroke-width="1.5" stroke-linecap="round" stroke-linejoin="round"/>
<path d="M10.6665 18.3333H18.6665" stroke="#2C2C2C" stroke-width="1.5" stroke-linecap="round" stroke-linejoin="round"/>
</svg>
