<svg width="32" height="32" viewBox="0 0 32 32" fill="none" xmlns="http://www.w3.org/2000/svg">
<path d="M13.4 3.37332L5.37336 8.61332C2.80003 10.2933 2.80003 14.0533 5.37336 15.7333L13.4 20.9733C14.84 21.92 17.2134 21.92 18.6534 20.9733L26.64 15.7333C29.2 14.0533 29.2 10.3067 26.64 8.62665L18.6534 3.38665C17.2134 2.42665 14.84 2.42665 13.4 3.37332Z" stroke="#2C2C2C" stroke-width="1.5" stroke-linecap="round" stroke-linejoin="round"/>
<path d="M7.5065 17.44L7.49316 23.6933C7.49316 25.3867 8.79983 27.2 10.3998 27.7333L14.6532 29.1467C15.3865 29.3867 16.5998 29.3867 17.3465 29.1467L21.5998 27.7333C23.1998 27.2 24.5065 25.3867 24.5065 23.6933V17.5067" stroke="#2C2C2C" stroke-width="1.5" stroke-linecap="round" stroke-linejoin="round"/>
<path d="M28.5332 20V12" stroke="#2C2C2C" stroke-width="1.5" stroke-linecap="round" stroke-linejoin="round"/>
</svg>
