<svg width="30" height="30" viewBox="0 0 30 30" fill="none" xmlns="http://www.w3.org/2000/svg">
<path d="M15.6171 26.1406L18.5873 9.43589C21.4185 9.43589 22.3115 9.74635 22.4404 11.0135C22.4404 11.0135 24.3396 10.3054 25.2975 8.86715C21.5595 7.13505 17.8037 7.05694 17.8037 7.05694L15.6121 9.72625L15.6171 9.72592L13.4255 7.05652C13.4255 7.05652 9.66961 7.13472 5.93213 8.86682C6.88919 10.305 8.78916 11.0132 8.78916 11.0132C8.91885 9.74593 9.81077 9.43548 12.6229 9.43347L15.6171 26.1406Z" fill="#E82127"/>
<path d="M15.6156 6.28589C18.6373 6.26278 22.0959 6.75333 25.6364 8.29646C26.1096 7.44473 26.2313 7.0683 26.2313 7.0683C22.3609 5.53706 18.7364 5.01302 15.6152 4.99988C12.4942 5.01302 8.86985 5.53714 5 7.0683C5 7.0683 5.17264 7.53197 5.59445 8.29646C9.13433 6.75333 12.5935 6.26278 15.6152 6.28589H15.6156Z" fill="#E82127"/>
</svg>
